Coordinates
version=1
nRows=40
nColumns=30
inDegrees=yes

Units are S.I. units (second, meters, Newtons, ...)
Angles are in degrees.

endheader
time	floatyaw	floatroll	floatpitch	floatx	floaty	floatz	pro_sup_l	deviation_l	flexion_l	cmc_flexion_l	cmc_abduction_l	mp_flexion_l	ip_flexion_l	2mcp_flexion_l	2mcp_abduction_l	2pm_flexion_l	2md_flexion_l	3mcp_flexion_l	3mcp_abduction_l	3pm_flexion_l	3md_flexion_l	4mcp_flexion_l	4mcp_abduction_l	4pm_flexion_l	4md_flexion_l	5mcp_flexion_l	5mcp_abduction_l	5pm_flexion_l	5md_flexion_l
-0.495000	-4.245860	-0.556116	99.572370	-0.100481	-0.192632	-0.015342	87.253291	0.986254	-0.727209	14.137713	6.633956	-22.728355	-35.340233	39.432292	7.527313	48.459609	32.896295	23.900699	4.770681	49.717885	33.050301	12.834924	-4.732115	63.810690	42.586780	6.879453	-7.446361	63.080004	41.596130
-0.485000	-4.245860	-0.556116	99.572370	-0.100104	-0.192387	-0.015125	87.273202	1.003762	-0.678678	14.115906	6.747261	-22.705946	-35.320625	39.380875	7.494965	48.420578	32.875694	23.873740	4.780871	49.729996	33.060253	12.810389	-4.726363	63.823631	42.596771	6.939699	-7.482919	63.057511	41.577871
-0.475000	-4.245860	-0.556116	99.572370	-0.099726	-0.192141	-0.014905	87.311200	0.993409	-0.598611	14.110384	6.855363	-22.674849	-35.296027	39.338724	7.456442	48.376812	32.854541	23.847430	4.787737	49.746652	33.073072	12.794861	-4.720892	63.829589	42.602410	6.990786	-7.519256	63.031307	41.560039
-0.465000	-4.245860	-0.556116	99.572370	-0.099337	-0.191887	-0.014678	87.365892	0.952316	-0.486228	14.121993	6.963195	-22.637018	-35.267542	39.313624	7.416910	48.345410	32.840691	23.830469	4.786997	49.778870	33.094333	12.797322	-4.714367	63.834472	42.606795	7.045778	-7.550705	62.999688	41.541062
-0.455000	-4.245860	-0.556116	99.572370	-0.098920	-0.191615	-0.014435	87.438040	0.881675	-0.341652	14.146355	7.079463	-22.597289	-35.238653	39.304050	7.386644	48.344331	32.841144	23.829254	4.777775	49.841111	33.131863	12.823666	-4.707376	63.852141	42.617459	7.128281	-7.578204	62.970304	41.521761
-0.445000	-4.245860	-0.556116	99.572370	-0.098463	-0.191312	-0.014165	87.531736	0.788111	-0.164961	14.175802	7.212526	-22.561236	-35.214270	39.297662	7.376010	48.387382	32.860066	23.845473	4.763289	49.945465	33.192713	12.874881	-4.702282	63.899704	42.643639	7.266514	-7.607652	62.957984	41.504398
-0.435000	-4.245860	-0.556116	99.572370	-0.097952	-0.190959	-0.013851	87.653010	0.683573	0.043922	14.203831	7.367373	-22.532330	-35.199262	39.274354	7.389684	48.480335	32.898179	23.874661	4.749383	50.096168	33.280165	12.946461	-4.702096	63.990318	42.692234	7.483810	-7.646721	62.977476	41.490225
-0.425000	-4.245860	-0.556116	99.572370	-0.097372	-0.190529	-0.013479	87.806080	0.582602	0.284463	14.230206	7.544464	-22.509859	-35.197013	39.212818	7.423028	48.618838	32.953513	23.907448	4.741733	50.286951	33.391944	13.030004	-4.708734	64.127113	42.764579	7.790055	-7.701154	63.034928	41.477137
-0.415000	-4.245860	-0.556116	99.572370	-0.096703	-0.189987	-0.013027	87.989031	0.497734	0.553996	14.263780	7.739845	-22.488757	-35.208306	39.098191	7.462740	48.788974	33.023171	23.934377	4.743121	50.502245	33.520206	13.117260	-4.721503	64.301160	42.855643	8.178741	-7.772155	63.123084	41.459240
-0.405000	-4.245860	-0.556116	99.572370	-0.095920	-0.189297	-0.012476	88.191659	0.435744	0.845975	14.320807	7.945810	-22.461617	-35.230820	38.927719	7.492059	48.971091	33.105301	23.952604	4.751907	50.721440	33.653136	13.205476	-4.736932	64.493885	42.955747	8.630610	-7.855048	63.223131	41.429072
-0.395000	-4.245860	-0.556116	99.572370	-0.094992	-0.188432	-0.011805	88.397735	0.397630	1.148979	14.419118	8.152478	-22.422038	-35.259665	38.712090	7.498297	49.146255	33.200256	23.970413	4.762358	50.924310	33.777634	13.301396	-4.750524	64.682214	43.053603	9.120454	-7.938813	63.312378	41.381449
-0.385000	-4.245860	-0.556116	99.572370	-0.093883	-0.187373	-0.010999	88.591488	0.383057	1.447649	14.571193	8.351552	-22.367610	-35.289088	38.471714	7.478150	49.302789	33.310048	24.005625	4.766901	51.095887	33.882396	13.420834	-4.759554	64.844292	43.139168	9.622476	-8.007041	63.373577	41.316651
-0.375000	-4.245860	-0.556116	99.572370	-0.092549	-0.186117	-0.010041	88.764670	0.396692	1.726159	14.779856	8.542312	-22.300900	-35.314659	38.228660	7.437037	49.439441	33.436087	24.077452	4.759341	51.229292	33.960305	13.582158	-4.764838	64.964053	43.205261	10.112396	-8.041500	63.400663	41.240765
-0.365000	-4.245860	-0.556116	99.572370	-0.090948	-0.184664	-0.008922	88.918803	0.451845	1.973542	15.038364	8.737022	-22.227924	-35.334823	37.996020	7.383045	49.563372	33.576533	24.195876	4.737041	51.325263	34.008852	13.795202	-4.769791	65.033320	43.247518	10.568023	-8.028269	63.397591	41.162533
-0.355000	-4.245860	-0.556116	99.572370	-0.089032	-0.183016	-0.007632	89.060009	0.568151	2.188744	15.333828	8.961265	-22.154953	-35.350833	37.768393	7.320470	49.684376	33.725185	24.354539	4.700592	51.388251	34.028337	14.050908	-4.777185	65.050826	43.263118	10.970896	-7.963976	63.370844	41.088091
-0.345000	-4.245860	-0.556116	99.572370	-0.086758	-0.181165	-0.006157	89.190313	0.764217	2.382642	15.651297	9.246544	-22.085096	-35.364677	37.519292	7.247684	49.808834	33.872832	24.531237	4.651763	51.421140	34.019465	14.318836	-4.785958	65.019193	43.249665	11.309689	-7.858389	63.320072	41.016454
-0.335000	-4.245860	-0.556116	99.572370	-0.084084	-0.179091	-0.004475	89.303656	1.050117	2.575323	15.976377	9.617363	-22.016099	-35.375482	37.210206	7.159577	49.936244	34.010044	24.696153	4.592202	51.421738	33.982513	14.556860	-4.790568	64.942057	43.205493	11.584236	-7.731279	63.233057	40.938549
-0.325000	-4.245860	-0.556116	99.572370	-0.080975	-0.176769	-0.002558	89.391598	1.424999	2.789065	16.295971	10.079960	-21.940718	-35.376489	36.809478	7.051174	50.059021	34.129302	24.824368	4.524382	51.382988	33.918611	14.730655	-4.783504	64.822711	43.131285	11.808781	-7.604891	63.089149	40.840735
-0.315000	-4.245860	-0.556116	99.572370	-0.077401	-0.174173	-0.000374	89.454849	1.881055	3.039418	16.598488	10.620808	-21.850306	-35.355598	36.310723	6.919448	50.164823	34.225252	24.907687	4.453538	51.296415	33.831447	14.834214	-4.759447	64.664051	43.031353	12.013156	-7.495785	62.870306	40.711083
-0.305000	-4.245860	-0.556116	99.572370	-0.073342	-0.171293	0.002103	89.510586	2.409840	3.327705	16.875556	11.217057	-21.740089	-35.300875	35.738243	6.763313	50.240771	34.293903	24.961194	4.388045	51.157255	33.727457	14.901117	-4.718618	64.469642	42.913358	12.240200	-7.409767	62.574751	40.545365
-0.295000	-4.245860	-0.556116	99.572370	-0.068782	-0.168145	0.004890	89.587927	3.005075	3.638355	17.126096	11.851792	-21.612533	-35.208552	35.135060	6.583518	50.279352	34.332751	25.021285	4.337144	50.970128	33.614561	14.999694	-4.667515	64.246870	42.787152	12.538373	-7.342008	62.227093	40.350355
-0.285000	-4.245860	-0.556116	99.572370	-0.063718	-0.164786	0.007983	89.712755	3.659363	3.943733	17.360645	12.522774	-21.475952	-35.088432	34.541671	6.383238	50.284802	34.342901	25.133690	4.307512	50.753831	33.501216	15.211369	-4.616696	64.011984	42.664281	12.950606	-7.282145	61.879164	40.143275
-0.275000	-4.245860	-0.556116	99.572370	-0.058160	-0.161303	0.011363	89.891250	4.358131	4.216609	17.601520	13.238816	-21.339345	-34.962858	33.979467	6.168499	50.276528	34.332037	25.333779	4.300972	50.541898	33.396735	15.598675	-4.576714	63.792919	42.558184	13.502659	-7.221364	61.597026	39.946869
-0.265000	-4.245860	-0.556116	99.572370	-0.052133	-0.157801	0.014991	90.103331	5.077329	4.445537	17.875258	14.008550	-21.207783	-34.859356	33.447652	5.947724	50.285280	34.315453	25.627562	4.314322	50.375418	33.311876	16.176047	-4.554042	63.624059	42.483542	14.195841	-7.157086	61.434709	39.780897
-0.255000	-4.245860	-0.556116	99.572370	-0.045678	-0.154376	0.018815	90.312040	5.788688	4.643898	18.198536	14.832421	-21.081910	-34.800438	32.932897	5.731256	50.340991	34.312953	25.985518	4.340796	50.289367	33.258465	16.898757	-4.548664	63.532615	42.454282	15.009340	-7.093141	61.405007	39.653636
-0.245000	-4.245860	-0.556116	99.572370	-0.038846	-0.151097	0.022780	90.485462	6.469843	4.844297	18.564448	15.705483	-20.961033	-34.795176	32.425267	5.532149	50.458061	34.342154	26.356722	4.372407	50.300661	33.248662	17.679432	-4.554469	63.525808	42.482402	15.914457	-7.036998	61.465406	39.559015
-0.235000	-4.245860	-0.556116	99.572370	-0.031704	-0.148005	0.026835	90.618901	7.112010	5.078200	18.937875	16.629002	-20.846505	-34.836570	31.933248	5.367606	50.629006	34.412014	26.698254	4.402787	50.407436	33.295486	18.428490	-4.562701	63.591100	42.579959	16.896134	-6.996526	61.534084	39.483046
-0.225000	-4.245860	-0.556116	99.572370	-0.024336	-0.145129	0.030938	90.742693	7.719424	5.351413	19.264592	17.620936	-20.743494	-34.907442	31.491722	5.258085	50.834400	34.521289	27.003997	4.429878	50.601282	33.414521	19.101399	-4.567143	63.712295	42.762666	17.970848	-6.976827	61.535331	39.417133
-0.215000	-4.245860	-0.556116	99.572370	-0.016842	-0.142501	0.035059	90.908699	8.300991	5.631111	19.491140	18.715269	-20.662138	-34.994322	31.158945	5.221247	51.064176	34.662931	27.316673	4.456997	50.883696	33.624180	19.730045	-4.567973	63.890597	43.050198	19.190408	-6.976638	61.453552	39.369807
-0.205000	-4.245860	-0.556116	99.572370	-0.009331	-0.140169	0.039173	91.162571	8.859850	5.854775	19.585898	19.947487	-20.618525	-35.102879	31.003555	5.261916	51.332055	34.829624	27.716451	4.490852	51.274358	33.942107	20.420685	-4.571355	64.154915	43.460316	20.628057	-6.985279	61.363524	39.367416
-0.195000	-4.245860	-0.556116	99.572370	-0.001917	-0.138191	0.043248	91.519172	9.386985	5.958249	19.550325	21.332562	-20.632662	-35.263853	31.087987	5.364144	51.665779	35.014111	28.290738	4.536687	51.804501	34.378530	21.314884	-4.584616	64.553969	44.000153	22.351416	-6.982422	61.412764	39.440772
-0.185000	-4.245860	-0.556116	99.572370	0.005289	-0.136623	0.047234	91.956650	9.861763	5.907810	19.414319	22.847228	-20.720403	-35.522117	31.455369	5.492487	52.075494	35.203981	29.097892	4.593114	52.498364	34.930407	22.528274	-4.610350	65.135802	44.661397	24.392651	-6.942223	61.759777	39.605262
-0.175000	-4.245860	-0.556116	99.572370	0.012179	-0.135498	0.051067	92.431391	10.258450	5.718114	19.218486	24.427455	-20.882061	-35.913564	32.123467	5.604057	52.524931	35.378160	30.141583	4.650368	53.353639	35.580368	24.097488	-4.643842	65.927946	45.422717	26.729311	-6.841065	62.501746	39.847890
-0.165000	-4.245860	-0.556116	99.572370	0.018659	-0.134817	0.054683	92.901283	10.555272	5.446474	18.993018	25.984514	-21.096427	-36.444952	33.085408	5.665221	52.932416	35.512571	31.369662	4.694030	54.334461	36.302183	25.965713	-4.675821	66.929608	46.256936	29.287582	-6.666201	63.633092	40.130056
-0.155000	-4.245860	-0.556116	99.572370	0.024655	-0.134559	0.058029	93.340280	10.742244	5.167697	18.744079	27.431786	-21.327528	-37.090095	34.314216	5.664198	53.207489	35.594681	32.699327	4.712513	55.385073	37.071606	28.015682	-4.698701	68.118513	47.139073	31.970219	-6.422018	65.055166	40.403681
-0.145000	-4.245860	-0.556116	99.572370	0.030119	-0.134690	0.061076	93.736477	10.825485	4.942808	18.454455	28.707090	-21.542299	-37.803605	35.767372	5.614760	53.302774	35.638701	34.054690	4.703602	56.459835	37.878597	30.128430	-4.712329	69.466240	48.054610	34.696629	-6.131369	66.626216	40.631026
-0.135000	-4.245860	-0.556116	99.572370	0.035030	-0.135187	0.063812	94.079468	10.827523	4.795040	18.097956	29.779287	-21.728579	-38.542287	37.390667	5.551190	53.249945	35.691483	35.395575	4.675649	57.553759	38.735115	32.231681	-4.725912	70.953089	49.008679	37.432895	-5.830519	68.223724	40.799718
-0.125000	-4.245860	-0.556116	99.572370	0.039392	-0.136041	0.066234	94.348591	10.783425	4.700676	17.659427	30.641294	-21.902231	-39.282492	39.125835	5.516640	53.157778	35.823886	36.723684	4.642449	58.716294	39.673574	34.313977	-4.755160	72.576961	50.032869	40.194976	-5.558029	69.792718	40.928728
-0.115000	-4.245860	-0.556116	99.572370	0.043223	-0.137255	0.068345	94.509878	10.732423	4.596234	17.148535	31.301894	-22.099625	-40.026795	40.926099	5.547896	53.169798	36.109785	38.067974	4.614769	60.038365	40.734296	36.405945	-4.816023	74.353927	51.181437	43.025489	-5.340930	71.362415	41.063035
-0.105000	-4.245860	-0.556116	99.572370	0.046556	-0.138820	0.070147	94.523369	10.706206	4.399200	16.599280	31.785221	-22.360728	-40.799152	42.774692	5.661541	53.398414	36.601169	39.462874	4.593522	61.612348	41.944611	38.547349	-4.917767	76.307099	52.510862	45.959318	-5.184199	73.022995	41.256207
